<?xml version="1.0" encoding="UTF-8" standalone="no"?>
<svg width="148px" height="148px" viewBox="0 0 148 148" version="1.1" xmlns="http://www.w3.org/2000/svg" xmlns:xlink="http://www.w3.org/1999/xlink" preserveAspectRatio="xMidYMid">
    <defs>
        <linearGradient x1="50%" y1="0%" x2="50%" y2="100%" id="linearGradient-1">
            <stop stop-color="#16B0ED" stop-opacity="0.800235524" offset="0%"></stop>
            <stop stop-color="#0F59B2" stop-opacity="0.83700023" offset="100%"></stop>
        </linearGradient>
        <linearGradient x1="50%" y1="0%" x2="50%" y2="100%" id="linearGradient-2">
            <stop stop-color="#7DB643" offset="0%"></stop>
            <stop stop-color="#367533" offset="100%"></stop>
        </linearGradient>
        <linearGradient x1="50%" y1="0%" x2="50%" y2="100%" id="linearGradient-3">
            <stop stop-color="#88C649" stop-opacity="0.8" offset="0%"></stop>
            <stop stop-color="#439240" stop-opacity="0.84" offset="100%"></stop>
        </linearGradient>
    </defs>
	<g>
		<g>
			<g>
				<path d="M0.0188037914,32.1877871 L31.3322156,0.572985361 L31.332215,147.571242 L0.0188037914,116.321577 L0.0188037914,32.1877871 L0.0188037914,32.1877871 Z" fill="url(#linearGradient-1)"></path>
				<path d="M89.4837594,32.4862691 L121.226122,0.590059535 L120.582695,147.571242 L89.269284,116.321577 L89.4837594,32.4862691 L89.4837594,32.4862691 Z" fill="url(#linearGradient-2)" transform="translate(105.247703, 74.080651) scale(-1, 1) translate(-105.247703, -74.080651) "></path>
				<path d="M31.3113362,0.598133687 L112.722926,124.829189 L89.9415068,147.610037 L8.48731391,23.6539656 L31.3113362,0.598133687 L31.3113362,0.598133687 Z" fill="url(#linearGradient-3)"></path>
				<path d="M31.3393522,58.2198072 L31.2960504,63.112906 L6.15984438,26.0032984 L8.48731391,23.6323156 L31.3393522,58.2198072 L31.3393522,58.2198072 Z" fill-opacity="0.13" fill="#000000"></path>
			</g>
		</g>
	</g>
</svg>
